<?xml version="1.0" standalone="no"?>
<!DOCTYPE svg PUBLIC "-//W3C//DTD SVG 20010904//EN"
 "http://www.w3.org/TR/2001/REC-SVG-20010904/DTD/svg10.dtd">
<svg version="1.0" xmlns="http://www.w3.org/2000/svg"
 width="51.000000pt" height="51.000000pt" viewBox="0 0 51.000000 51.000000"
 preserveAspectRatio="xMidYMid meet">
<metadata>
Created by potrace 1.16, written by Peter Selinger 2001-2019
</metadata>
<g transform="translate(0.000000,51.000000) scale(0.100000,-0.100000)"
fill="#000000" stroke="none">
<path d="M300 384 c-19 -8 -42 -17 -50 -20 -126 -47 -225 -92 -228 -102 -2 -7
13 -19 35 -28 21 -8 47 -19 58 -24 11 -5 66 -28 123 -51 126 -51 138 -46 91
39 l-33 59 32 62 c30 54 34 82 14 80 -4 0 -23 -7 -42 -15z"/>
</g>
</svg>
